<?xml version="1.0" encoding="iso-8859-1"?>
<!-- Uploaded to: SVG Repo, www.svgrepo.com, Generator: SVG Repo Mixer Tools -->
<!DOCTYPE svg PUBLIC "-//W3C//DTD SVG 1.1//EN" "http://www.w3.org/Graphics/SVG/1.1/DTD/svg11.dtd">
<svg fill="#000000" version="1.1" id="Capa_1" xmlns="http://www.w3.org/2000/svg" xmlns:xlink="http://www.w3.org/1999/xlink" 
	 width="800px" height="800px" viewBox="0 0 76.879 76.879"
	 xml:space="preserve">
<g>
	<g>
		<g>
			<path d="M54.204,76.879c-1.554,0-3.027-0.593-4.147-1.671c-2.427-2.335-3.818-6.069-4.56-8.791
				c-0.843-2.499-1.953-6.821-3.47-13.519c-1.774-8.248-4.521-10.975-11.307-11.231l-6.827,0.001c-0.055,0-0.113-0.004-0.173-0.012
				h-4.238c-2.873,0-5.21-2.336-5.21-5.209c0-2.873,2.337-5.21,5.21-5.21H31.48c5.092,0,9.017-1.695,11.121-4.723H16.199
				c-2.925,0-5.304-2.38-5.304-5.305s2.379-5.305,5.304-5.305h27.124c-1.969-4.014-6.554-5.237-10.311-5.519H16.199
				c-2.974,0-5.304-2.271-5.304-5.17c0-2.924,2.33-5.215,5.304-5.215h44.48c2.974,0,5.304,2.291,5.304,5.215
				c0,2.899-2.33,5.17-5.304,5.17h-6.062c0.861,1.666,1.481,3.528,1.834,5.519h4.228c2.925,0,5.304,2.38,5.304,5.305
				s-2.379,5.305-5.304,5.305h-5.013c-1.563,4.418-4.67,7.992-8.951,10.329c3.514,2.528,5.916,6.756,7.304,12.83
				c1.919,8.202,3.612,15.19,4.886,17.556c0.001,0.002,0.002,0.004,0.003,0.006c1.831,2.343,1.681,5.656-0.392,7.811
				C57.378,76.229,55.847,76.879,54.204,76.879z M30.777,38.668c8.29,0.314,12.118,3.996,14.179,13.585
				c1.49,6.579,2.574,10.808,3.41,13.292c0.932,3.417,2.262,6.051,3.77,7.501c1.15,1.106,3.115,1.067,4.22-0.081
				c1.06-1.102,1.104-2.816,0.103-3.988c-0.117-0.14-0.209-0.297-0.271-0.47c0-0.002-0.001-0.005-0.002-0.007
				c-1.429-2.768-3.015-9.287-5.088-18.15c-1.491-6.519-4.189-10.527-8.251-12.262c-0.562-0.24-0.922-0.796-0.91-1.407
				c0.011-0.611,0.393-1.154,0.962-1.373c5.185-1.989,8.817-5.792,10.233-10.708c0.186-0.643,0.773-1.085,1.441-1.085h6.107
				c1.271,0,2.304-1.034,2.304-2.305s-1.034-2.305-2.304-2.305h-5.524c-0.763,0-1.403-0.572-1.489-1.33
				c-0.34-2.966-1.389-5.729-2.953-7.779c-0.346-0.453-0.404-1.064-0.151-1.575c0.253-0.511,0.774-0.835,1.344-0.835h8.774
				c1.312,0,2.304-0.933,2.304-2.17c0-1.242-1.012-2.215-2.304-2.215H16.199c-1.292,0-2.304,0.973-2.304,2.215
				c0,1.237,0.991,2.17,2.304,2.17h16.868c0.036,0,0.073,0.001,0.109,0.004c7.474,0.544,12.349,3.975,13.726,9.662
				c0.108,0.447,0.005,0.919-0.278,1.28c-0.285,0.362-0.72,0.573-1.18,0.573H16.199c-1.271,0-2.304,1.034-2.304,2.305
				s1.034,2.305,2.304,2.305h28.866c0.492,0,0.953,0.241,1.232,0.646c0.281,0.404,0.345,0.92,0.172,1.38
				c-2.039,5.446-7.642,8.697-14.989,8.697H19.482c-1.219,0-2.21,0.992-2.21,2.21c0,1.218,0.992,2.21,2.21,2.21h4.359
				c0.054,0,0.108,0.003,0.162,0.009c0.006,0,0.012,0.001,0.017,0.002L30.777,38.668z"/>
		</g>
	</g>
</g>
</svg>